<?xml version="1.0" encoding="UTF-8"?>
<svg version="1.1" xmlns="http://www.w3.org/2000/svg" width="3240" height="3240">
<path d="M0,0 L21,0 L41,3 L65,11 L79,18 L89,24 L94,28 L101,33 L101,35 L105,37 L112,43 L116,48 L116,50 L119,51 L128,64 L136,78 L141,89 L147,107 L150,124 L150,160 L146,178 L140,196 L132,212 L125,223 L123,223 L121,228 L110,241 L108,241 L107,244 L96,253 L88,259 L79,264 L62,273 L49,277 L40,279 L38,280 L18,282 L4,282 L-19,280 L-24,278 L-33,276 L-46,271 L-60,264 L-70,258 L-78,252 L-88,244 L-95,236 L-108,220 L-115,208 L-119,200 L-123,190 L-126,182 L-130,164 L-131,154 L-131,127 L-129,112 L-125,98 L-119,82 L-108,62 L-101,53 L-99,50 L-97,50 L-95,46 L-90,41 L-84,35 L-82,35 L-81,32 L-68,23 L-53,14 L-46,11 L-25,4 L-9,1 Z " fill="currentColor" transform="translate(510,447)"/>
<path d="M0,0 L23,0 L42,3 L58,8 L67,12 L74,15 L88,23 L102,33 L107,38 L117,48 L117,50 L119,50 L128,63 L135,74 L142,89 L146,100 L150,119 L151,129 L151,154 L148,174 L144,187 L137,204 L130,216 L120,230 L109,242 L101,250 L90,258 L77,266 L62,273 L50,277 L41,279 L39,280 L20,282 L3,282 L-17,280 L-35,275 L-43,272 L-59,264 L-70,258 L-70,256 L-75,254 L-85,245 L-88,243 L-88,241 L-91,240 L-100,229 L-109,217 L-117,203 L-120,196 L-125,182 L-129,165 L-131,152 L-131,130 L-128,111 L-123,94 L-119,85 L-115,76 L-105,59 L-96,48 L-92,43 L-84,36 L-81,35 L-80,32 L-66,22 L-52,14 L-35,7 L-21,3 Z " fill="currentColor" transform="translate(1412,447)"/>
<path d="M0,0 L2507,0 L2508,1 L2508,81 L2507,82 L0,82 L-1,81 L-1,1 Z " fill="currentColor" transform="translate(378,886)"/>
<path d="M0,0 L2500,0 L2502,2 L2502,159 L2501,160 L-6,160 L-7,159 L-7,2 Z " fill="currentColor" transform="translate(384,1032)"/>
<path d="M0,0 L153,0 L154,2 L154,143 L153,145 L0,145 L-1,144 L-1,2 Z " fill="currentColor" transform="translate(2084,1299)"/>
<path d="M0,0 L39,0 L66,3 L74,5 L86,7 L100,11 L117,17 L129,22 L139,27 L149,31 L153,34 L160,37 L173,44 L186,52 L195,57 L206,65 L207,69 L199,87 L194,100 L190,109 L185,119 L180,133 L174,145 L171,152 L164,169 L158,181 L155,181 L148,176 L137,170 L123,162 L114,159 L97,152 L74,145 L60,141 L38,138 L22,138 L7,140 L-7,145 L-15,152 L-18,159 L-19,162 L-19,172 L-16,181 L-11,187 L0,193 L5,196 L15,200 L24,203 L33,205 L50,211 L65,216 L78,221 L87,224 L97,227 L113,233 L118,236 L129,241 L140,247 L149,252 L156,257 L165,262 L177,273 L184,279 L184,281 L186,281 L192,288 L192,290 L194,290 L195,294 L197,294 L201,300 L209,312 L214,325 L217,334 L221,350 L223,362 L223,401 L220,423 L215,442 L210,454 L204,466 L197,477 L189,488 L179,500 L177,500 L176,503 L165,512 L157,518 L144,526 L127,535 L110,541 L101,544 L95,546 L81,549 L55,553 L38,554 L8,554 L-13,553 L-34,550 L-58,545 L-73,541 L-83,538 L-93,535 L-104,530 L-116,525 L-135,516 L-143,511 L-154,505 L-165,498 L-178,489 L-180,488 L-180,486 L-185,484 L-190,479 L-186,469 L-182,460 L-178,451 L-172,437 L-166,424 L-161,413 L-157,404 L-147,381 L-141,369 L-136,359 L-132,361 L-120,370 L-111,376 L-102,381 L-97,384 L-87,390 L-72,396 L-62,400 L-52,404 L-39,408 L-24,411 L0,415 L33,415 L49,412 L58,407 L64,400 L67,391 L67,378 L63,369 L58,363 L56,362 L56,360 L50,358 L34,350 L21,345 L15,343 L-8,336 L-22,331 L-30,329 L-53,320 L-63,316 L-82,308 L-93,302 L-104,295 L-109,292 L-123,281 L-138,267 L-149,253 L-149,251 L-151,251 L-158,239 L-162,231 L-167,217 L-170,208 L-173,197 L-176,174 L-176,144 L-172,119 L-169,108 L-166,102 L-162,92 L-153,77 L-149,71 L-144,64 L-142,64 L-140,60 L-129,49 L-118,40 L-112,35 L-103,30 L-93,24 L-80,18 L-66,13 L-42,6 L-30,4 L-19,2 Z " fill="currentColor" transform="translate(593,1470)"/>
<path d="M0,0 L40,0 L67,3 L83,6 L100,10 L104,12 L113,14 L126,19 L134,23 L141,26 L147,29 L160,36 L167,41 L176,46 L192,59 L199,64 L204,69 L215,80 L215,82 L218,83 L223,89 L223,91 L225,91 L227,96 L229,96 L230,100 L232,100 L236,106 L243,117 L248,125 L254,136 L265,159 L273,182 L278,203 L280,210 L284,234 L286,256 L286,299 L283,328 L281,337 L279,349 L275,364 L265,394 L259,407 L251,423 L245,433 L240,442 L228,458 L225,463 L223,463 L221,467 L206,483 L197,492 L184,502 L171,511 L162,517 L151,523 L142,528 L135,531 L127,535 L116,539 L107,542 L95,545 L73,550 L53,553 L32,554 L7,554 L-12,553 L-36,549 L-53,545 L-67,541 L-85,535 L-96,529 L-103,526 L-120,517 L-138,505 L-152,494 L-156,491 L-156,489 L-160,487 L-178,469 L-178,467 L-180,467 L-191,453 L-202,438 L-208,427 L-214,416 L-220,404 L-226,388 L-231,377 L-236,359 L-239,347 L-242,333 L-245,309 L-245,248 L-242,224 L-238,203 L-230,177 L-226,167 L-220,151 L-211,134 L-206,124 L-202,117 L-200,117 L-198,112 L-190,100 L-187,96 L-185,96 L-184,92 L-182,92 L-180,88 L-166,73 L-158,66 L-153,61 L-143,53 L-132,45 L-116,35 L-105,29 L-96,24 L-86,20 L-76,16 L-58,10 L-43,6 L-27,3 L-5,1 Z M10,146 L-4,148 L-16,151 L-25,155 L-36,161 L-48,170 L-55,176 L-59,181 L-67,191 L-67,193 L-69,193 L-76,205 L-81,218 L-84,226 L-87,236 L-90,254 L-91,265 L-91,293 L-89,308 L-87,321 L-83,334 L-78,346 L-73,356 L-64,368 L-55,378 L-51,383 L-43,389 L-41,389 L-41,391 L-30,397 L-21,402 L-8,406 L7,409 L34,409 L52,405 L63,401 L81,391 L86,387 L86,385 L90,383 L95,379 L95,377 L97,377 L97,375 L99,375 L104,368 L104,366 L106,366 L114,354 L124,332 L128,318 L132,290 L132,270 L129,244 L124,223 L120,214 L113,200 L106,188 L97,178 L95,175 L93,175 L92,172 L78,161 L67,155 L55,150 L41,147 L32,146 Z " fill="currentColor" transform="translate(1123,1470)"/>
<path d="M0,0 L39,0 L55,2 L72,5 L77,7 L86,9 L99,14 L105,16 L113,20 L132,30 L146,40 L153,45 L153,47 L157,49 L167,58 L172,64 L177,69 L189,85 L198,99 L207,116 L213,132 L218,148 L221,161 L224,187 L224,518 L223,519 L70,519 L69,518 L68,246 L65,218 L61,202 L54,185 L45,171 L44,168 L42,168 L42,166 L40,166 L35,161 L24,153 L13,149 L-2,146 L-20,146 L-38,150 L-48,154 L-59,161 L-69,169 L-77,178 L-79,181 L-81,181 L-82,185 L-90,198 L-95,210 L-98,219 L-100,233 L-100,515 L-102,519 L-255,519 L-256,518 L-256,18 L-254,16 L-125,16 L-121,21 L-117,32 L-112,49 L-107,48 L-90,35 L-88,35 L-88,33 L-79,28 L-69,22 L-64,20 L-54,15 L-38,9 L-14,2 Z " fill="currentColor" transform="translate(1754,1479)"/>
<path d="M0,0 L153,0 L154,3 L154,502 L153,503 L0,503 L-1,502 L-1,2 Z " fill="currentColor" transform="translate(2084,1495)"/>
<path d="M0,0 L170,0 L175,5 L179,10 L183,17 L186,20 L190,27 L197,37 L197,39 L199,39 L205,49 L213,60 L221,72 L232,88 L242,102 L250,114 L252,117 L256,116 L266,101 L269,96 L271,96 L273,91 L279,82 L286,72 L291,64 L293,63 L298,54 L304,46 L317,27 L328,11 L335,1 L337,0 L506,0 L507,5 L498,18 L489,31 L476,50 L467,63 L460,73 L451,86 L441,101 L429,118 L422,129 L420,129 L419,133 L405,153 L397,165 L388,178 L383,186 L381,186 L379,191 L370,204 L359,220 L352,230 L345,240 L342,244 L343,250 L348,256 L352,263 L352,265 L354,265 L361,276 L370,289 L381,305 L381,307 L383,307 L390,318 L401,334 L408,344 L415,354 L423,366 L432,379 L439,389 L446,399 L449,403 L449,406 L451,406 L455,412 L461,421 L470,434 L471,438 L473,438 L480,449 L490,463 L498,475 L507,488 L514,498 L516,502 L515,503 L343,503 L336,494 L336,492 L334,492 L329,483 L325,478 L314,462 L314,460 L312,460 L308,453 L296,436 L281,414 L272,401 L263,388 L257,379 L257,377 L252,376 L245,387 L236,400 L235,402 L233,402 L232,406 L224,417 L220,423 L216,428 L213,433 L210,438 L208,438 L207,442 L199,454 L187,471 L171,494 L165,502 L164,503 L-8,503 L-7,499 L-3,493 L4,482 L16,465 L29,446 L36,436 L51,414 L61,399 L70,387 L71,384 L73,384 L75,379 L81,370 L82,368 L84,368 L86,363 L93,352 L95,352 L97,347 L108,331 L119,315 L130,299 L134,293 L144,278 L153,265 L160,255 L164,249 L163,242 L155,231 L147,219 L138,206 L138,204 L136,204 L131,195 L127,190 L124,185 L124,183 L122,183 L112,168 L101,152 L95,143 L95,141 L93,141 L86,130 L79,120 L75,114 L65,100 L62,95 L62,93 L60,93 L51,79 L40,63 L27,44 L20,34 L11,21 L6,14 L2,7 L0,5 Z " fill="currentColor" transform="translate(2315,1495)"/>
<path d="M0,0 L152,0 L153,1 L153,675 L152,676 L-1,676 L-2,675 L-2,1 Z " fill="currentColor" transform="translate(431,2103)"/>
<path d="M0,0 L151,0 L153,2 L153,199 L159,197 L169,190 L180,184 L195,176 L202,173 L224,165 L233,163 L253,159 L257,158 L280,156 L311,156 L338,159 L354,163 L374,169 L393,177 L404,183 L418,192 L432,202 L437,206 L437,208 L441,210 L449,217 L465,233 L478,250 L486,262 L494,275 L502,291 L509,305 L514,318 L518,330 L523,348 L527,370 L530,392 L531,421 L531,441 L529,469 L527,482 L524,495 L522,506 L516,527 L511,541 L506,552 L498,569 L494,576 L486,589 L478,601 L467,614 L458,624 L445,637 L428,650 L415,659 L398,669 L390,673 L377,678 L374,680 L366,682 L349,687 L327,691 L309,693 L280,693 L251,690 L233,686 L220,682 L211,679 L202,675 L186,667 L174,660 L160,650 L149,641 L145,638 L143,638 L139,651 L137,660 L133,673 L131,676 L0,676 L-2,673 L-2,3 Z M260,303 L242,306 L229,311 L216,318 L203,328 L198,334 L193,339 L187,348 L187,350 L185,350 L177,368 L174,376 L170,393 L168,415 L168,436 L170,457 L174,474 L179,486 L187,502 L196,514 L198,514 L200,518 L207,525 L212,529 L222,536 L238,543 L250,546 L259,547 L284,547 L300,544 L309,541 L317,538 L329,531 L339,522 L344,517 L353,507 L361,494 L368,478 L372,464 L375,448 L375,404 L371,382 L367,369 L359,353 L352,341 L343,331 L338,326 L336,326 L336,324 L326,317 L311,309 L296,305 L285,303 Z " fill="currentColor" transform="translate(1312,2103)"/>
<path d="M0,0 L32,0 L55,2 L78,7 L89,10 L101,14 L118,21 L126,25 L138,32 L148,38 L160,47 L166,51 L172,37 L179,18 L181,17 L310,17 L312,20 L312,519 L311,520 L179,520 L174,505 L168,483 L164,481 L162,485 L160,485 L160,487 L154,491 L144,499 L128,509 L113,517 L97,524 L84,528 L74,531 L52,535 L32,537 L5,537 L-24,534 L-31,532 L-42,530 L-55,526 L-67,522 L-75,518 L-82,515 L-91,511 L-100,506 L-111,499 L-123,490 L-135,481 L-140,475 L-144,472 L-144,470 L-146,470 L-151,465 L-151,463 L-153,463 L-161,453 L-171,440 L-180,426 L-189,411 L-194,399 L-198,390 L-204,376 L-209,359 L-211,354 L-215,335 L-218,320 L-220,291 L-220,250 L-218,223 L-215,206 L-210,185 L-203,162 L-196,144 L-190,132 L-184,121 L-177,109 L-171,99 L-169,99 L-167,94 L-154,78 L-143,66 L-130,53 L-114,41 L-104,34 L-93,27 L-81,21 L-70,16 L-54,10 L-40,6 L-22,2 Z M38,146 L25,147 L9,150 L-4,155 L-10,158 L-20,164 L-27,169 L-27,171 L-31,173 L-31,175 L-34,176 L-45,190 L-51,201 L-56,211 L-60,223 L-63,236 L-65,259 L-65,280 L-63,302 L-59,317 L-55,329 L-45,348 L-34,362 L-26,369 L-15,377 L-8,381 L1,385 L10,388 L25,391 L52,391 L72,387 L84,382 L96,375 L107,366 L112,361 L121,349 L130,333 L135,322 L141,298 L142,289 L142,249 L137,223 L133,212 L129,203 L123,191 L119,185 L117,185 L115,180 L104,169 L99,167 L99,165 L86,157 L78,153 L63,149 L41,146 Z " fill="currentColor" transform="translate(894,2259)"/>
</svg>
