<svg  viewBox="0 0 221 207" fill="none" xmlns="http://www.w3.org/2000/svg">
<path d="M11.6548 0H13.5231L15.3025 0.265957L17.4377 0.975177L18.6833 1.59574L19.573 2.12766L20.0178 2.48227L20.6406 2.92553V3.10284L20.9964 3.28014L21.6192 3.81206L21.9751 4.25532V4.43262L22.242 4.52128L23.0427 5.67376L23.7544 6.91489L24.1993 7.89007L24.7331 9.48582L25 10.9929V14.1844L24.6441 15.7801L24.1103 17.3759L23.3986 18.7943L22.7758 19.7695H22.5979L22.4199 20.2128L21.4413 21.3652H21.2633L21.1744 21.6312L20.1957 22.4291L19.484 22.961L18.6833 23.4043L17.1708 24.2021L16.0142 24.5567L15.2135 24.734L15.0356 24.8227L13.2562 25H12.0107L9.96441 24.8227L9.51957 24.6454L8.71886 24.4681L7.56228 24.0248L6.31673 23.4043L5.42705 22.8723L4.7153 22.3404L3.82562 21.6312L3.20285 20.922L2.04626 19.5035L1.42349 18.4397L1.06762 17.7305L0.711744 16.844L0.44484 16.1348L0.088968 14.539L0 13.6525V11.2589L0.177936 9.92908L0.533808 8.68794L1.06762 7.2695L2.04626 5.49645L2.66904 4.69858L2.84698 4.43262H3.02491L3.20285 4.07801L3.64769 3.63475L4.18149 3.10284H4.35943L4.4484 2.83688L5.60498 2.03901L6.9395 1.24113L7.56228 0.975177L9.4306 0.35461L10.8541 0.0886525L11.6548 0Z" fill="currentColor"/>
<path d="M91.078 0H93.1986L94.9504 0.265957L96.4255 0.70922L97.2553 1.06383L97.9007 1.32979L99.1915 2.03901L100.482 2.92553L100.943 3.36879L101.865 4.25532V4.43262H102.05L102.879 5.58511L103.525 6.56028L104.17 7.89007L104.539 8.86525L104.908 10.5496L105 11.4362V13.6525L104.723 15.4255L104.355 16.578L103.709 18.0851L103.064 19.1489L102.142 20.3901L101.128 21.4539L100.39 22.1631L99.3759 22.8723L98.1773 23.5816L96.7943 24.2021L95.6879 24.5567L94.8582 24.734L94.6738 24.8227L92.922 25H91.3546L89.5106 24.8227L87.8511 24.3794L87.1135 24.1135L85.6383 23.4043L84.6241 22.8723V22.695L84.1631 22.5177L83.2411 21.7199L82.9645 21.5426V21.3652L82.6879 21.2766L81.8582 20.3014L81.0284 19.2376L80.2908 17.9965L80.0142 17.3759L79.5532 16.1348L79.1844 14.6277L79 13.4752V11.5248L79.2766 9.84043L79.7376 8.33333L80.1064 7.53546L80.4752 6.73759L81.3972 5.2305L82.227 4.25532L82.5957 3.81206L83.3333 3.19149L83.6099 3.10284L83.7021 2.83688L84.9929 1.95035L86.2837 1.24113L87.8511 0.620567L89.1418 0.265957L91.078 0Z" fill="currentColor"/>
<path d="M0.0880829 39H220.912L221 39.0854V45.9146L220.912 46H0.0880829L0 45.9146V39.0854L0.0880829 39Z" fill="currentColor"/>
<path d="M0.61658 51H220.824L221 51.175V64.9125L220.912 65H0.0880829L0 64.9125V51.175L0.61658 51Z" fill="currentColor"/>
<path d="M150.09 75H163.91L164 75.1793V87.8207L163.91 88H150.09L150 87.9103V75.1793L150.09 75Z" fill="currentColor"/>
<path d="M19.0218 90H22.5157L24.9346 90.2653L25.6513 90.4422L26.7264 90.6191L27.9806 90.9729L29.5036 91.5036L30.5787 91.9458L31.4746 92.3881L32.3705 92.7419L32.7288 93.0072L33.3559 93.2726L34.5206 93.8917L35.6852 94.5993L36.4915 95.0415L37.477 95.7491L37.5666 96.1029L36.8499 97.6949L36.4019 98.8448L36.0436 99.6408L35.5956 100.525L35.1477 101.764L34.6102 102.825L34.3414 103.444L33.7143 104.948L33.1768 106.009H32.908L32.2809 105.567L31.2954 105.036L30.0412 104.329L29.2349 104.063L27.7119 103.444L25.6513 102.825L24.3971 102.471L22.4262 102.206H20.9927L19.6489 102.383L18.3947 102.825L17.678 103.444L17.4092 104.063L17.3196 104.329V105.213L17.5884 106.009L18.0363 106.54L19.0218 107.07L19.4697 107.336L20.3656 107.69L21.1719 107.955L21.9782 108.132L23.5012 108.662L24.845 109.105L26.0097 109.547L26.816 109.812L27.7119 110.078L29.1453 110.608L29.5932 110.874L30.5787 111.316L31.5642 111.847L32.3705 112.289L32.9976 112.731L33.8039 113.173L34.8789 114.146L35.5061 114.677V114.854H35.6852L36.2228 115.473V115.65H36.4019L36.4915 116.004H36.6707L37.0291 116.534L37.7458 117.596L38.1937 118.745L38.4625 119.542L38.8208 120.957L39 122.018V125.468L38.7312 127.413L38.2833 129.094L37.8354 130.155L37.2978 131.217L36.6707 132.19L35.954 133.162L35.0581 134.224H34.8789L34.7893 134.489L33.8039 135.285L33.0872 135.816L31.9225 136.523L30.3995 137.319L28.8765 137.85L28.0702 138.116L27.5327 138.292L26.2785 138.558L23.9492 138.912L22.4262 139H19.7385L17.8571 138.912L15.9758 138.646L13.8257 138.204L12.4818 137.85L11.586 137.585L10.6901 137.319L9.7046 136.877L8.62954 136.435L6.92736 135.639L6.21065 135.197L5.22518 134.666L4.23971 134.047L3.07506 133.251L2.89588 133.162V132.986L2.44794 132.809L2 132.366L2.35835 131.482L2.71671 130.686L3.07506 129.89L3.61259 128.652L4.15012 127.502L4.59806 126.529L4.95642 125.733L5.8523 123.699L6.38983 122.637L6.83777 121.753L7.19613 121.93L8.27119 122.726L9.07748 123.256L9.88378 123.699L10.3317 123.964L11.2276 124.495L12.5714 125.025L13.4673 125.379L14.3632 125.733L15.5278 126.087L16.8717 126.352L19.0218 126.706H21.9782L23.4116 126.44L24.2179 125.998L24.7554 125.379L25.0242 124.583V123.433L24.6659 122.637L24.2179 122.106L24.0387 122.018V121.841L23.5012 121.664L22.0678 120.957L20.9031 120.514L20.3656 120.338L18.3051 119.718L17.0508 119.276L16.3341 119.099L14.2736 118.303L13.3777 117.949L11.6755 117.242L10.6901 116.711L9.7046 116.092L9.25666 115.827L8.00242 114.854L6.6586 113.616L5.67312 112.377V112.2H5.49395L4.86683 111.139L4.50847 110.431L4.06053 109.193L3.79177 108.397L3.523 107.424L3.25424 105.39V102.736L3.61259 100.525L3.88136 99.5523L4.15012 99.0217L4.50847 98.1372L5.31477 96.8105L5.67312 96.2798L6.12107 95.6606H6.30024L6.47942 95.3069L7.46489 94.3339L8.45036 93.5379L8.98789 93.0957L9.79419 92.6534L10.6901 92.1227L11.8547 91.5921L13.109 91.1498L15.2591 90.5307L16.3341 90.3538L17.3196 90.1769L19.0218 90Z" fill="currentColor"/>
<path d="M65.6855 90H69.226L71.6158 90.2653L73.032 90.5307L74.5367 90.8845L74.8908 91.0614L75.6874 91.2383L76.838 91.6805L77.5461 92.0343L78.1657 92.2996L78.6968 92.565L79.8475 93.1841L80.467 93.6264L81.2637 94.0686L82.6798 95.2184L83.2994 95.6606L83.742 96.1029L84.7156 97.0758V97.2527L84.9812 97.3412L85.4237 97.8718V98.0487H85.6008L85.7778 98.491H85.9548L86.0433 98.8448H86.2203L86.5744 99.3755L87.194 100.348L87.6365 101.056L88.1676 102.029L89.1412 104.063L89.8493 106.097L90.2919 107.955L90.4689 108.574L90.823 110.697L91 112.643V116.446L90.7345 119.011L90.5574 119.807L90.3804 120.868L90.0264 122.195L89.1412 124.848L88.6102 125.998L87.9021 127.413L87.371 128.298L86.9284 129.094L85.8663 130.509L85.6008 130.951H85.4237L85.2467 131.305L83.919 132.72L83.1224 133.516L81.9718 134.401L80.8211 135.197L80.0245 135.727L79.0508 136.258L78.2542 136.7L77.6347 136.966L76.9266 137.319L75.9529 137.673L75.1563 137.939L74.0942 138.204L72.1469 138.646L70.3766 138.912L68.5179 139H66.3051L64.6234 138.912L62.4991 138.558L60.9944 138.204L59.7552 137.85L58.162 137.319L57.1883 136.789L56.5687 136.523L55.064 135.727L53.4708 134.666L52.2316 133.693L51.8776 133.428V133.251L51.5235 133.074L49.9303 131.482V131.305H49.7533L48.7797 130.067L47.806 128.74L47.275 127.767L46.7439 126.794L46.2128 125.733L45.6817 124.318L45.2392 123.345L44.7966 121.753L44.5311 120.691L44.2655 119.453L44 117.33V111.935L44.2655 109.812L44.6196 107.955L45.3277 105.655L45.6817 104.771L46.2128 103.356L47.0094 101.852L47.452 100.968L47.806 100.348H47.9831L48.1601 99.9061L48.8682 98.8448L49.1337 98.491H49.3107L49.3992 98.1372H49.5763L49.7533 97.7834L50.9925 96.4567L51.7006 95.8375L52.1431 95.3953L53.0282 94.6877L54.0019 93.9801L55.4181 93.0957L56.3917 92.565L57.1883 92.1227L58.0734 91.769L58.9586 91.4152L60.5518 90.8845L61.8795 90.5307L63.2957 90.2653L65.2429 90.0884L65.6855 90ZM66.5706 102.913L65.3315 103.09L64.2693 103.356L63.4727 103.709L62.4991 104.24L61.4369 105.036L60.8173 105.567L60.4633 106.009L59.7552 106.894V107.07H59.5782L58.9586 108.132L58.516 109.282L58.2505 109.989L57.9849 110.874L57.7194 112.466L57.6309 113.439V115.915L57.8079 117.242L57.9849 118.392L58.339 119.542L58.7815 120.603L59.2241 121.487L60.0207 122.549L60.8173 123.433L61.1714 123.875L61.8795 124.406H62.0565V124.583L63.0301 125.114L63.8267 125.556L64.9774 125.91L66.3051 126.175H68.6949L70.2881 125.821L71.2618 125.468L72.855 124.583L73.2976 124.229V124.052L73.6516 123.875L74.0942 123.522V123.345H74.2712V123.168H74.4482L74.8908 122.549V122.372H75.0678L75.7759 121.31L76.661 119.365L77.0151 118.126L77.3691 115.65V113.881L77.1036 111.581L76.661 109.724L76.307 108.928L75.6874 107.69L75.0678 106.628L74.2712 105.744L74.0942 105.478H73.9171L73.8286 105.213L72.5895 104.24L71.6158 103.709L70.5537 103.267L69.3145 103.002L68.5179 102.913H66.5706Z" fill="currentColor"/>
<path d="M120.933 91H124.427L125.86 91.1773L127.383 91.4432L127.831 91.6204L128.637 91.7977L129.802 92.2408L130.34 92.4181L131.056 92.7726L132.758 93.659L134.012 94.5453L134.64 94.9884V95.1657L134.998 95.343L135.894 96.1407L136.342 96.6724L136.79 97.1156L137.865 98.5337L138.671 99.7746L139.477 101.281L140.015 102.699L140.462 104.118L140.731 105.27L141 107.574V136.911L140.91 137H127.204L127.115 136.911L127.025 112.803L126.756 110.322L126.398 108.904L125.771 107.397L124.965 106.156L124.875 105.89H124.696V105.713H124.517L124.069 105.27L123.083 104.561L122.098 104.206L120.754 103.94H119.142L117.529 104.295L116.633 104.649L115.648 105.27L114.752 105.979L114.035 106.776L113.856 107.042H113.677L113.587 107.397L112.871 108.549L112.423 109.613L112.154 110.41L111.975 111.651V136.645L111.796 137H98.0896L98 136.911V92.5954L98.1792 92.4181H109.735L110.094 92.8613L110.452 93.8362L110.9 95.343L111.348 95.2543L112.871 94.1021H113.05V93.9249L113.856 93.4817L114.752 92.9499L115.2 92.7726L116.096 92.3295L117.529 91.7977L119.679 91.1773L120.933 91Z" fill="currentColor"/>
<path d="M150.09 92H163.91L164 92.2684V136.911L163.91 137H150.09L150 136.911V92.1789L150.09 92Z" fill="currentColor"/>
<path d="M170.702 92H185.626L186.065 92.4473L186.416 92.8946L186.767 93.5209L187.031 93.7893L187.382 94.4155L187.996 95.3101V95.4891H188.172L188.698 96.3837L189.401 97.3678L190.103 98.4414L191.069 99.8728L191.947 101.125L192.649 102.199L192.824 102.467L193.176 102.378L194.053 101.036L194.317 100.588H194.492L194.668 100.141L195.195 99.336L195.809 98.4414L196.248 97.7256L196.424 97.6362L196.863 96.831L197.389 96.1153L198.531 94.4155L199.496 92.9841L200.111 92.0895L200.286 92H215.122L215.21 92.4473L214.42 93.6103L213.63 94.7734L212.489 96.4732L211.698 97.6362L211.084 98.5308L210.294 99.6938L209.416 101.036L208.363 102.557L207.748 103.541H207.573L207.485 103.899L206.256 105.688L205.553 106.761L204.763 107.924L204.324 108.64H204.149L203.973 109.087L203.183 110.25L202.218 111.682L201.603 112.577L200.989 113.471L200.725 113.829L200.813 114.366L201.252 114.903L201.603 115.529V115.708H201.779L202.393 116.692L203.183 117.855L204.149 119.286V119.465H204.324L204.939 120.449L205.905 121.881L206.519 122.775L207.134 123.67L207.836 124.744L208.626 125.907L209.24 126.801L209.855 127.696L210.118 128.054V128.322H210.294L210.645 128.859L211.172 129.664L211.962 130.827L212.05 131.185H212.225L212.84 132.169L213.718 133.421L214.42 134.495L215.21 135.658L215.824 136.553L216 136.911L215.912 137H200.813L200.198 136.195V136.016H200.023L199.584 135.211L199.233 134.763L198.267 133.332V133.153H198.092L197.74 132.527L196.687 131.006L195.37 129.038L194.58 127.875L193.79 126.712L193.263 125.907V125.728L192.824 125.638L192.21 126.622L191.42 127.785L191.332 127.964H191.156L191.069 128.322L190.366 129.306L190.015 129.843L189.664 130.29L189.401 130.738L189.137 131.185H188.962L188.874 131.543L188.172 132.616L187.118 134.137L185.714 136.195L185.187 136.911L185.099 137H170L170.088 136.642L170.439 136.105L171.053 135.121L172.107 133.6L173.248 131.901L173.863 131.006L175.179 129.038L176.057 127.696L176.847 126.622L176.935 126.354H177.111L177.286 125.907L177.813 125.101L177.901 124.922H178.076L178.252 124.475L178.866 123.491H179.042L179.218 123.044L180.183 121.612L181.149 120.181L182.115 118.75L182.466 118.213L183.344 116.871L184.134 115.708L184.748 114.813L185.099 114.276L185.011 113.65L184.309 112.666L183.607 111.592L182.817 110.429V110.25H182.641L182.202 109.445L181.851 108.998L181.588 108.551V108.372H181.412L180.534 107.03L179.569 105.598L179.042 104.793V104.614H178.866L178.252 103.63L177.637 102.736L177.286 102.199L176.408 100.946L176.145 100.499V100.32H175.969L175.179 99.0676L174.214 97.6362L173.073 95.9364L172.458 95.0417L171.668 93.8787L171.229 93.2525L170.878 92.6262L170.702 92.4473V92Z" fill="currentColor"/>
<path d="M4.18065 146H17.9097L18 146.087V204.913L17.9097 205H4.09032L4 204.913V146.087L4.18065 146Z" fill="currentColor"/>
<path d="M82.1764 146H95.4916L95.6679 146.176V163.517L96.197 163.341L97.0788 162.724L98.0488 162.196L99.3715 161.492L99.9887 161.228L101.929 160.524L102.722 160.348L104.486 159.996L104.839 159.908L106.867 159.732H109.6L111.981 159.996L113.392 160.348L115.156 160.876L116.831 161.58L117.801 162.108L119.036 162.9L120.27 163.781L120.711 164.133V164.309L121.064 164.485L121.769 165.101L123.18 166.509L124.326 168.006L125.032 169.062L125.737 170.206L126.443 171.615L127.06 172.847L127.501 173.991L127.854 175.048L128.295 176.632L128.647 178.569L128.912 180.505L129 183.058V184.818L128.824 187.283L128.647 188.427L128.383 189.571L128.206 190.54L127.677 192.388L127.236 193.62L126.795 194.589L126.09 196.085L125.737 196.701L125.032 197.846L124.326 198.902L123.356 200.046L122.563 200.926L121.417 202.071L119.917 203.215L118.771 204.007L117.272 204.887L116.567 205.24L115.42 205.68L115.156 205.856L114.45 206.032L112.951 206.472L111.011 206.824L109.424 207H106.867L104.31 206.736L102.722 206.384L101.576 206.032L100.782 205.768L99.9887 205.416L98.5779 204.711L97.5197 204.095L96.2852 203.215L95.3152 202.423L94.9625 202.159H94.7861L94.4334 203.303L94.257 204.095L93.9043 205.24L93.728 205.504H82.1764L82 205.24V146.264L82.1764 146ZM105.103 172.671L103.516 172.935L102.37 173.375L101.223 173.991L100.077 174.872L99.636 175.4L99.1951 175.84L98.666 176.632V176.808H98.4897L97.7842 178.392L97.5197 179.097L97.167 180.593L96.9906 182.53V184.378L97.167 186.227L97.5197 187.723L97.9606 188.779L98.666 190.188L99.4597 191.244H99.636L99.8124 191.596L100.43 192.212L100.871 192.564L101.752 193.18L103.163 193.797L104.221 194.061L105.015 194.149H107.22L108.63 193.885L109.424 193.62L110.129 193.356L111.188 192.74L112.069 191.948L112.51 191.508L113.304 190.628L114.009 189.483L114.627 188.075L114.979 186.843L115.244 185.434V181.561L114.891 179.625L114.538 178.481L113.833 177.072L113.216 176.016L112.422 175.136L111.981 174.696H111.805V174.519L110.923 173.903L109.6 173.199L108.278 172.847L107.308 172.671H105.103Z" fill="currentColor"/>
<path d="M45.4361 159H48.2632L50.2951 159.179L52.3271 159.626L53.2989 159.894L54.359 160.251L55.8609 160.877L56.5677 161.235L57.6278 161.86L58.5113 162.397L59.5714 163.201L60.1015 163.559L60.6316 162.307L61.25 160.609L61.4267 160.52H72.8233L73 160.788V205.391L72.9117 205.48H61.25L60.8083 204.14L60.2782 202.173L59.9248 201.994L59.7481 202.352H59.5714V202.531L59.0414 202.888L58.1579 203.603L56.7444 204.497L55.4192 205.212L54.0056 205.838L52.8571 206.196L51.9737 206.464L50.0301 206.821L48.2632 207H45.8778L43.3158 206.732L42.6974 206.553L41.7256 206.374L40.5771 206.017L39.5169 205.659L38.8102 205.302L38.1917 205.034L37.3966 204.676L36.6015 204.229L35.6297 203.603L34.5695 202.799L33.5094 201.994L33.0677 201.458L32.7143 201.19V201.011H32.5376L32.0959 200.564V200.385H31.9192L31.2124 199.492L30.3289 198.33L29.5338 197.078L28.7387 195.737L28.297 194.665L27.9436 193.86L27.4135 192.609L26.9718 191.089L26.7951 190.642L26.4417 188.944L26.1767 187.603L26 185.011V181.346L26.1767 178.933L26.4417 177.413L26.8835 175.536L27.5019 173.48L28.1203 171.872L28.6504 170.799L29.1805 169.816L29.7989 168.743L30.3289 167.849H30.5056L30.6823 167.402L31.8308 165.972L32.8026 164.899L33.9511 163.737L35.3647 162.665L36.2481 162.039L37.2199 161.413L38.2801 160.877L39.2519 160.43L40.6654 159.894L41.9023 159.536L43.4925 159.179L45.4361 159ZM48.7932 172.05L47.6447 172.14L46.2312 172.408L45.0827 172.855L44.5526 173.123L43.6692 173.659L43.0508 174.106V174.285L42.6974 174.464V174.642L42.4323 174.732L41.4605 175.983L40.9305 176.966L40.4887 177.86L40.1353 178.933L39.8703 180.095L39.6936 182.151V184.028L39.8703 185.994L40.2237 187.335L40.5771 188.408L41.4605 190.106L42.4323 191.358L43.1391 191.983L44.1109 192.698L44.7293 193.056L45.5244 193.413L46.3195 193.682L47.6447 193.95H50.0301L51.797 193.592L52.8571 193.145L53.9173 192.52L54.8891 191.715L55.3308 191.268L56.1259 190.196L56.9211 188.765L57.3628 187.782L57.8929 185.637L57.9812 184.832V181.257L57.5395 178.933L57.1861 177.95L56.8327 177.145L56.3026 176.073L55.9492 175.536H55.7726L55.5959 175.089L54.6241 174.106L54.1823 173.927V173.749L53.0338 173.034L52.3271 172.676L51.0019 172.318L49.0583 172.05H48.7932Z" fill="currentColor"/>
</svg>
